<svg xmlns="http://www.w3.org/2000/svg" viewBox="0 0 278.94 110.36"><defs><style>.cls-1{fill:none;stroke:#000;stroke-linejoin:bevel;stroke-width:1.94px;}.cls-2{fill-rule:evenodd;}</style></defs><g id="Layer_2" data-name="Layer 2"><g id="Layer_1-2" data-name="Layer 1"><path d="M145.41,13a21.9,21.9,0,0,1,2.65-7.4c1.58-2.78,3.48-4.19,5.6-4.19,1.09,0,1.76.42,1.76,1.09,0,.25-.07.39-.32.85a3,3,0,0,0-.46,1.55,1.9,1.9,0,0,0,2.05,1.9,2.41,2.41,0,0,0,2.43-2.64c0-2.4-2.26-4.16-5.39-4.16-7.86,0-12.61,10.25-12.61,17,0,5.18,2.57,8.31,6.87,8.31a9.29,9.29,0,0,0,9.19-9.54,5.75,5.75,0,0,0-6-6.09A6.51,6.51,0,0,0,145.41,13m4.69-1.27c2.18,0,3.38,1.51,3.38,4.26,0,4.47-2.36,7.89-5.49,7.89-2.26,0-3.6-1.66-3.6-4.47,0-4.41,2.43-7.68,5.71-7.68"/><line class="cls-1" x1="24.27" y1="96.92" x2="24.27" y2="41.77"/><line class="cls-1" x1="75.01" y1="96.92" x2="75.01" y2="41.77"/><line class="cls-1" x1="125.74" y1="96.92" x2="125.74" y2="41.77"/><line class="cls-1" x1="176.48" y1="96.92" x2="176.48" y2="41.77"/><line class="cls-1" x1="227.21" y1="96.92" x2="227.21" y2="41.77"/><line class="cls-1" x1="277.95" y1="96.92" x2="277.95" y2="41.77"/><path d="M0,103.29c0,3.34,2.41,7.07,8.71,7.07,8.08,0,16.56-6.6,16.56-13.45,0-4.58-3.89-7.15-8.71-7.15C9,89.76,0,96.14,0,103.29"/><path d="M50.74,103.29c0,3.34,2.41,7.07,8.7,7.07,8.09,0,16.56-6.6,16.56-13.45,0-4.58-3.89-7.15-8.71-7.15-7.54,0-16.55,6.38-16.55,13.53"/><path d="M101.47,103.29c0,3.34,2.41,7.07,8.71,7.07,8.08,0,16.56-6.6,16.56-13.45,0-4.58-3.89-7.15-8.71-7.15-7.54,0-16.56,6.38-16.56,13.53"/><path d="M152.21,103.29c0,3.34,2.41,7.07,8.7,7.07,8.09,0,16.56-6.6,16.56-13.45,0-4.58-3.89-7.15-8.71-7.15-7.54,0-16.55,6.38-16.55,13.53"/><path d="M202.94,103.29c0,3.34,2.41,7.07,8.71,7.07,8.08,0,16.56-6.6,16.56-13.45,0-4.58-3.89-7.15-8.71-7.15-7.54,0-16.56,6.38-16.56,13.53"/><path d="M253.68,103.29c0,3.34,2.41,7.07,8.71,7.07,8.08,0,16.55-6.6,16.55-13.45,0-4.58-3.89-7.15-8.7-7.15-7.55,0-16.56,6.38-16.56,13.53"/><path class="cls-2" d="M23.3,36.92H278.92v9.71H23.3V36.92"/><path class="cls-2" d="M23.3,51.48H278.92v9.71H23.3V51.48"/><path d="M145.41,13a21.9,21.9,0,0,1,2.65-7.4c1.58-2.78,3.48-4.19,5.6-4.19,1.09,0,1.76.42,1.76,1.09,0,.25-.07.39-.32.85a3,3,0,0,0-.46,1.55,1.9,1.9,0,0,0,2.05,1.9,2.41,2.41,0,0,0,2.43-2.64c0-2.4-2.26-4.16-5.39-4.16-7.86,0-12.61,10.25-12.61,17,0,5.18,2.57,8.31,6.87,8.31a9.29,9.29,0,0,0,9.19-9.54,5.75,5.75,0,0,0-6-6.09A6.51,6.51,0,0,0,145.41,13m4.69-1.27c2.18,0,3.38,1.51,3.38,4.26,0,4.47-2.36,7.89-5.49,7.89-2.26,0-3.6-1.66-3.6-4.47,0-4.41,2.43-7.68,5.71-7.68"/></g></g></svg>