<svg xmlns="http://www.w3.org/2000/svg" viewBox="0 0 123.86 100.65"><defs><style>.cls-1{fill:none;stroke:#000;stroke-linejoin:bevel;stroke-width:1.94px;}.cls-2{fill-rule:evenodd;}</style></defs><g id="Layer_2" data-name="Layer 2"><g id="Layer_1-2" data-name="Layer 1"><path d="M75.7,12a10.81,10.81,0,0,0,3.16-1.37,6.06,6.06,0,0,0,2.68-5c0-3.35-2.68-5.6-6.62-5.6s-7.08,2.4-7.08,5.28a2.2,2.2,0,0,0,2.22,2.43,1.94,1.94,0,0,0,2-2,2,2,0,0,0-.74-1.59c-.36-.32-.49-.56-.49-.81,0-.84,1.75-1.73,3.41-1.73C76.61,1.58,78,2.89,78,5.07c0,3.14-2.22,6.09-4.58,6.09l-.81-.07c-1-.07-1-.07-1.24-.07-.77,0-1.19.36-1.19,1a.9.9,0,0,0,1,.92c.17,0,.43,0,.7-.07a6.82,6.82,0,0,1,1.35-.15c1.65,0,2.77,1.48,2.77,3.67,0,3.8-1.86,7.46-6.12,7.46-2,0-3.67-1-3.67-2.11,0-.39.15-.53.71-.77a2.09,2.09,0,0,0,1.45-2.05,2.19,2.19,0,0,0-2.26-2.18c-1.52,0-2.5,1.2-2.5,3,0,3.42,2.6,5.56,6.83,5.56,5.32,0,9.37-3.55,9.37-8.27,0-2.75-1.69-4.3-4.15-5.08"/><line class="cls-1" x1="24.27" y1="87.21" x2="24.27" y2="41.77"/><line class="cls-1" x1="73.57" y1="87.21" x2="73.57" y2="41.77"/><line class="cls-1" x1="122.87" y1="87.21" x2="122.87" y2="41.77"/><path d="M0,93.58c0,3.34,2.41,7.07,8.71,7.07,8.08,0,16.56-6.6,16.56-13.44,0-4.59-3.89-7.16-8.71-7.16C9,80.05,0,86.43,0,93.58"/><path d="M49.3,93.58c0,3.34,2.41,7.07,8.7,7.07,8.09,0,16.56-6.6,16.56-13.44,0-4.59-3.89-7.16-8.71-7.16-7.54,0-16.55,6.38-16.55,13.53"/><path d="M98.6,93.58c0,3.34,2.41,7.07,8.71,7.07,8.08,0,16.55-6.6,16.55-13.44,0-4.59-3.89-7.16-8.7-7.16-7.55,0-16.56,6.38-16.56,13.53"/><path class="cls-2" d="M23.3,36.92H123.84v9.71H23.3V36.92"/><path d="M75.7,12a10.81,10.81,0,0,0,3.16-1.37,6.06,6.06,0,0,0,2.68-5c0-3.35-2.68-5.6-6.62-5.6s-7.08,2.4-7.08,5.28a2.2,2.2,0,0,0,2.22,2.43,1.94,1.94,0,0,0,2-2,2,2,0,0,0-.74-1.59c-.36-.32-.49-.56-.49-.81,0-.84,1.75-1.73,3.41-1.73C76.61,1.58,78,2.89,78,5.07c0,3.14-2.22,6.09-4.58,6.09l-.81-.07c-1-.07-1-.07-1.24-.07-.77,0-1.19.36-1.19,1a.9.9,0,0,0,1,.92c.17,0,.43,0,.7-.07a6.82,6.82,0,0,1,1.35-.15c1.65,0,2.77,1.48,2.77,3.67,0,3.8-1.86,7.46-6.12,7.46-2,0-3.67-1-3.67-2.11,0-.39.15-.53.71-.77a2.09,2.09,0,0,0,1.45-2.05,2.19,2.19,0,0,0-2.26-2.18c-1.52,0-2.5,1.2-2.5,3,0,3.42,2.6,5.56,6.83,5.56,5.32,0,9.37-3.55,9.37-8.27,0-2.75-1.69-4.3-4.15-5.08"/></g></g></svg>