<svg xmlns="http://www.w3.org/2000/svg" viewBox="0 0 250.21 110.36"><defs><style>.cls-1{fill:none;stroke:#000;stroke-linejoin:bevel;stroke-width:1.94px;}.cls-2{fill-rule:evenodd;}</style></defs><g id="Layer_2" data-name="Layer 2"><g id="Layer_1-2" data-name="Layer 1"><path d="M144.43,0a58.38,58.38,0,0,1-6.13.35c-1,0-2.11,0-3.38-.1L131.4,0l-.88,0L127.1,7.43l1.3.42.85-1.4c1.66-2.75,2.43-3.14,6-3.1h5.95l-3.83,5.49c-4.51,6.34-4.51,6.34-6.24,9.16-1.55,2.5-2.18,4.05-2.18,5.32a1.86,1.86,0,0,0,2,2c1.3,0,2-.63,2.43-2.29,1.76-6.62,2.81-8.91,7.71-16.83l3.31-5.14V0"/><line class="cls-1" x1="24.27" y1="96.92" x2="24.27" y2="41.77"/><line class="cls-1" x1="61.76" y1="96.92" x2="61.76" y2="41.77"/><line class="cls-1" x1="99.25" y1="96.92" x2="99.25" y2="41.77"/><line class="cls-1" x1="136.74" y1="96.92" x2="136.74" y2="41.77"/><line class="cls-1" x1="174.23" y1="96.92" x2="174.23" y2="41.77"/><line class="cls-1" x1="211.72" y1="96.92" x2="211.72" y2="41.77"/><path d="M0,103.29c0,3.34,2.41,7.07,8.71,7.07,8.08,0,16.56-6.6,16.56-13.45,0-4.58-3.89-7.15-8.71-7.15C9,89.76,0,96.14,0,103.29"/><path d="M37.49,103.29c0,3.34,2.41,7.07,8.71,7.07,8.08,0,16.56-6.6,16.56-13.45,0-4.58-3.89-7.15-8.71-7.15-7.54,0-16.56,6.38-16.56,13.53"/><path d="M75,103.29c0,3.34,2.41,7.07,8.71,7.07,8.08,0,16.56-6.6,16.56-13.45,0-4.58-3.89-7.15-8.71-7.15C84,89.76,75,96.14,75,103.29"/><path d="M112.47,103.29c0,3.34,2.41,7.07,8.71,7.07,8.08,0,16.56-6.6,16.56-13.45,0-4.58-3.89-7.15-8.71-7.15-7.54,0-16.56,6.38-16.56,13.53"/><path d="M150,103.29c0,3.34,2.41,7.07,8.71,7.07,8.08,0,16.56-6.6,16.56-13.45,0-4.58-3.89-7.15-8.71-7.15C159,89.76,150,96.14,150,103.29"/><path d="M224.94,103.29c0,3.34,2.41,7.07,8.71,7.07,8.08,0,16.56-6.6,16.56-13.45,0-4.58-3.89-7.15-8.71-7.15-7.54,0-16.56,6.38-16.56,13.53"/><path d="M187.45,103.29c0,3.34,2.41,7.07,8.71,7.07,8.08,0,16.56-6.6,16.56-13.45,0-4.58-3.89-7.15-8.71-7.15-7.54,0-16.56,6.38-16.56,13.53"/><path class="cls-2" d="M23.3,36.92H250.18v9.71H23.3V36.92"/><path class="cls-2" d="M23.3,51.48H250.18v9.71H23.3V51.48"/><path d="M144.43,0a58.38,58.38,0,0,1-6.13.35c-1,0-2.11,0-3.38-.1L131.4,0l-.88,0L127.1,7.43l1.3.42.85-1.4c1.66-2.75,2.43-3.14,6-3.1h5.95l-3.83,5.49c-4.51,6.34-4.51,6.34-6.24,9.16-1.55,2.5-2.18,4.05-2.18,5.32a1.86,1.86,0,0,0,2,2c1.3,0,2-.63,2.43-2.29,1.76-6.62,2.81-8.91,7.71-16.83l3.31-5.14V0"/></g></g></svg>