<svg xmlns="http://www.w3.org/2000/svg" viewBox="0 0 44.99 87.9"><defs><style>.cls-1{fill:none;stroke:#000;stroke-linejoin:bevel;stroke-width:1.94px;}</style></defs><g id="Layer_2" data-name="Layer 2"><g id="Layer_1-2" data-name="Layer 1"><line class="cls-1" x1="24.27" y1="74.46" x2="24.27" y2="1.02"/><path d="M37.92,28.45c3,4,3.73,7.15,3.73,10.11,0,.46-.08.85-.08,1.24-.08-.16-.23-.31-.31-.47C37.61,34.51,31.15,29.07,28.2,24.8A15.61,15.61,0,0,1,26,19.43c4,0,9.1,5.37,11.9,9m1.63,22.86a103.58,103.58,0,0,0-8.24-9c-3-3-4.43-5.68-5-7.7-.07-.39-.15-1-.31-1.63,4,0,9.1,4.82,11.9,8.47,3,4,3.73,7.16,3.73,10.11,0,.93-.08,1.86-.16,2.8a20,20,0,0,0-1.94-3M23.3,44.15c0,.24.62.55,1.17.78,2,.7,8.08,4.59,12.75,11.51,2.64,4,3.26,6.76,3.26,9.4a7.26,7.26,0,0,1-.08,1.32,29.9,29.9,0,0,1-1.71,8.94,7.13,7.13,0,0,0-.31,1.25,1,1,0,0,0,.55.85.67.67,0,0,0,.39.08c.54,0,.85-.62,1.16-1.09A21.31,21.31,0,0,0,43.9,66.46a40.59,40.59,0,0,0-.39-5.75A39,39,0,0,0,45,50.53a19.53,19.53,0,0,0-.86-5.68,32.59,32.59,0,0,0,.86-7.3,17.84,17.84,0,0,0-3.73-11.2c-3.65-4.82-7.62-8.86-10.58-13.14S25.55.93,25.55.93C25.4.39,25.32,0,24.47,0S23.3.39,23.3.93V44.15"/><path d="M0,80.83c0,3.34,2.41,7.07,8.71,7.07,8.08,0,16.56-6.6,16.56-13.44,0-4.59-3.89-7.16-8.71-7.16C9,67.3,0,73.68,0,80.83"/></g></g></svg>