<svg xmlns="http://www.w3.org/2000/svg" viewBox="0 0 45.76 74.38"><defs><style>.cls-1{fill:none;stroke:#000;stroke-linejoin:bevel;stroke-width:1.94px;}</style></defs><g id="Layer_2" data-name="Layer 2"><g id="Layer_1-2" data-name="Layer 1"><line class="cls-1" x1="24.27" y1="60.93" x2="24.27" y2="1.09"/><path d="M23.3,18.58a.89.89,0,0,0,.62.85C27.26,20.52,34,24.72,39,33.35a21.22,21.22,0,0,1,3.66,12.2c0,5.6-1.48,11.35-3.51,17a2.52,2.52,0,0,0-.23,1.16.74.74,0,0,0,.78.78A1.44,1.44,0,0,0,41,63.59c3.49-6.22,4.81-13.45,4.81-20.52a33.27,33.27,0,0,0-6.14-17.42c.24,0-7.15-9.56-9.25-12.82A43.29,43.29,0,0,1,26,3.65c-.08-.23-.78-3-.78-3A1,1,0,0,0,24.31,0a1,1,0,0,0-1,1V18.58"/><path d="M0,67.3c0,3.35,2.41,7.08,8.71,7.08,8.08,0,16.56-6.61,16.56-13.45,0-4.59-3.89-7.15-8.71-7.15C9,53.78,0,60.15,0,67.3"/></g></g></svg>