<svg xmlns="http://www.w3.org/2000/svg" viewBox="0 0 54.69 74.38"><defs><style>.cls-1{fill:none;stroke:#000;stroke-linejoin:bevel;stroke-width:1.94px;}</style></defs><g id="Layer_2" data-name="Layer 2"><g id="Layer_1-2" data-name="Layer 1"><line class="cls-1" x1="24.27" y1="60.93" x2="24.27" y2="1.01"/><path d="M39.55,37.7a92,92,0,0,0-8.24-9c-3-3-4.44-5.68-5-7.7-.08-.39-.15-.94-.23-1.56,4,0,9,5.37,11.82,9,3,4,3.72,7.08,3.72,10a22.78,22.78,0,0,1-.15,2.33,22.21,22.21,0,0,0-1.94-3.11M23.3,30.55c0,.23.62.54,1.17.78,2,.7,8.08,4.58,12.75,11.5,2.64,4,3.26,6.77,3.26,9.41a7.37,7.37,0,0,1-.08,1.32,29.9,29.9,0,0,1-1.71,8.94,7,7,0,0,0-.31,1.24,1,1,0,0,0,.55.86.66.66,0,0,0,.38.08c.55,0,.86-.63,1.17-1.09A21.34,21.34,0,0,0,43.9,52.86a40.48,40.48,0,0,0-.39-5.75A34.28,34.28,0,0,0,45,37.54a17.83,17.83,0,0,0-3.73-11.19c-3.66-4.82-7.62-8.86-10.58-13.14S25.55.93,25.55.93C25.4.39,25.32,0,24.47,0S23.3.39,23.3.93V30.55"/><path d="M0,67.3c0,3.35,2.41,7.08,8.71,7.08,8.08,0,16.56-6.61,16.56-13.45,0-4.59-3.89-7.15-8.71-7.15C9,53.78,0,60.15,0,67.3"/><path d="M46.92,54.33a3.89,3.89,0,1,0,3.88-3.89,3.85,3.85,0,0,0-3.88,3.89"/></g></g></svg>