<svg xmlns="http://www.w3.org/2000/svg" viewBox="0 0 269.9 120.07"><defs><style>.cls-1{fill:none;stroke:#000;stroke-linejoin:bevel;stroke-width:1.94px;}.cls-2{fill-rule:evenodd;}</style></defs><g id="Layer_2" data-name="Layer 2"><g id="Layer_1-2" data-name="Layer 1"><path d="M149.44,11.76c2.75-1.3,5.32-2.74,5.32-6.27,0-3.2-2.71-5.49-6.48-5.49-4.54,0-8.07,3.28-8.07,7.54a5.42,5.42,0,0,0,2.64,4.89c-4.15,1.59-6.37,4.16-6.37,7.36,0,3.42,2.82,5.53,7.33,5.53,5.42,0,9.29-3.31,9.29-7.89,0-2.78-1.51-4.26-3.66-5.67m-1.51-.84c-3.6-1.69-4.9-3.07-4.9-5.07,0-2.43,2.18-4.34,5-4.34,2.43,0,4.12,1.55,4.12,3.77a6.18,6.18,0,0,1-4.19,5.64m-3.74,2.46A28,28,0,0,1,147.33,15,4.79,4.79,0,0,1,150,19c0,2.71-2.54,4.75-5.85,4.75-3,0-4.86-1.69-4.86-4.4s1.69-4.72,4.86-6"/><line class="cls-1" x1="24.27" y1="106.62" x2="24.27" y2="41.77"/><line class="cls-1" x1="59.22" y1="106.62" x2="59.22" y2="41.77"/><line class="cls-1" x1="94.17" y1="106.62" x2="94.17" y2="41.77"/><line class="cls-1" x1="129.11" y1="106.62" x2="129.11" y2="41.77"/><line class="cls-1" x1="164.06" y1="106.62" x2="164.06" y2="41.77"/><line class="cls-1" x1="199.01" y1="106.62" x2="199.01" y2="41.77"/><line class="cls-1" x1="233.96" y1="106.62" x2="233.96" y2="41.77"/><line class="cls-1" x1="268.91" y1="106.62" x2="268.91" y2="41.77"/><path d="M0,113c0,3.34,2.41,7.07,8.71,7.07,8.08,0,16.56-6.61,16.56-13.45,0-4.58-3.89-7.15-8.71-7.15C9,99.47,0,105.85,0,113"/><path d="M35,113c0,3.34,2.41,7.07,8.71,7.07,8.08,0,16.55-6.61,16.55-13.45,0-4.58-3.89-7.15-8.7-7.15C44,99.47,35,105.85,35,113"/><path d="M69.9,113c0,3.34,2.41,7.07,8.7,7.07,8.09,0,16.56-6.61,16.56-13.45,0-4.58-3.89-7.15-8.71-7.15-7.54,0-16.55,6.38-16.55,13.53"/><path d="M104.84,113c0,3.34,2.41,7.07,8.71,7.07,8.09,0,16.56-6.61,16.56-13.45,0-4.58-3.89-7.15-8.71-7.15-7.54,0-16.56,6.38-16.56,13.53"/><path d="M139.79,113c0,3.34,2.41,7.07,8.71,7.07,8.08,0,16.56-6.61,16.56-13.45,0-4.58-3.89-7.15-8.71-7.15-7.54,0-16.56,6.38-16.56,13.53"/><path d="M209.69,113c0,3.34,2.41,7.07,8.7,7.07,8.09,0,16.56-6.61,16.56-13.45,0-4.58-3.89-7.15-8.71-7.15-7.54,0-16.55,6.38-16.55,13.53"/><path d="M244.63,113c0,3.34,2.41,7.07,8.71,7.07,8.09,0,16.56-6.61,16.56-13.45,0-4.58-3.89-7.15-8.71-7.15-7.54,0-16.56,6.38-16.56,13.53"/><path d="M174.74,113c0,3.34,2.41,7.07,8.71,7.07,8.08,0,16.55-6.61,16.55-13.45,0-4.58-3.89-7.15-8.7-7.15-7.55,0-16.56,6.38-16.56,13.53"/><path class="cls-2" d="M23.3,36.92H269.88v9.71H23.3V36.92"/><path class="cls-2" d="M23.3,51.48H130.09v9.71H23.3V51.48"/><path class="cls-2" d="M163.09,51.48H269.88v9.71H163.09V51.48"/><path class="cls-2" d="M23.3,66H130.09v9.71H23.3V66"/><path class="cls-2" d="M163.09,66H269.88v9.71H163.09V66"/><path d="M149.44,11.76c2.75-1.3,5.32-2.74,5.32-6.27,0-3.2-2.71-5.49-6.48-5.49-4.54,0-8.07,3.28-8.07,7.54a5.42,5.42,0,0,0,2.64,4.89c-4.15,1.59-6.37,4.16-6.37,7.36,0,3.42,2.82,5.53,7.33,5.53,5.42,0,9.29-3.31,9.29-7.89,0-2.78-1.51-4.26-3.66-5.67m-1.51-.84c-3.6-1.69-4.9-3.07-4.9-5.07,0-2.43,2.18-4.34,5-4.34,2.43,0,4.12,1.55,4.12,3.77a6.18,6.18,0,0,1-4.19,5.64m-3.74,2.46A28,28,0,0,1,147.33,15,4.79,4.79,0,0,1,150,19c0,2.71-2.54,4.75-5.85,4.75-3,0-4.86-1.69-4.86-4.4s1.69-4.72,4.86-6"/></g></g></svg>