<svg xmlns="http://www.w3.org/2000/svg" viewBox="0 0 42.73 58.88"><defs><style>.cls-1{fill:none;stroke:#000;stroke-linejoin:bevel;stroke-width:1.94px;}</style></defs><g id="Layer_2" data-name="Layer 2"><g id="Layer_1-2" data-name="Layer 1"><line class="cls-1" x1="24.27" y1="45.44" x2="24.27"/><path d="M5.83,55.23a2.91,2.91,0,0,1-3.11-2.8c0-3.81,13.06-10.5,16.71-10.5,1.87,0,3.11,1.09,3.11,2.8,0,3.89-13.13,10.5-16.71,10.5M16.56,38.28C9,38.28,0,44.58,0,51.81c0,3.34,2.41,7.07,8.71,7.07,8.08,0,16.56-6.6,16.56-13.45,0-4.58-3.89-7.15-8.71-7.15"/><path d="M35,38.83A3.89,3.89,0,1,0,38.84,35,3.85,3.85,0,0,0,35,38.83"/></g></g></svg>