<svg xmlns="http://www.w3.org/2000/svg" viewBox="0 0 119.72 110.24"><defs><style>.cls-1,.cls-2{fill:none;stroke:#000;stroke-width:1.94px;}.cls-1{stroke-linejoin:bevel;}.cls-2{stroke-miterlimit:10;}</style></defs><g id="Layer_2" data-name="Layer 2"><g id="Layer_1-2" data-name="Layer 1"><path d="M64.34,12a10.77,10.77,0,0,0,3.17-1.37,6.06,6.06,0,0,0,2.68-5c0-3.35-2.68-5.6-6.62-5.6s-7.08,2.4-7.08,5.28a2.2,2.2,0,0,0,2.22,2.43,1.93,1.93,0,0,0,2-2A2,2,0,0,0,60,4.12c-.35-.32-.49-.56-.49-.81,0-.84,1.76-1.73,3.42-1.73,2.36,0,3.77,1.31,3.77,3.49,0,3.14-2.22,6.09-4.58,6.09l-.81-.07c-1-.07-1-.07-1.24-.07-.77,0-1.19.36-1.19,1a.9.9,0,0,0,1,.92,6,6,0,0,0,.7-.08,7.42,7.42,0,0,1,1.34-.14c1.66,0,2.78,1.48,2.78,3.67,0,3.8-1.86,7.46-6.12,7.46-2,0-3.67-1-3.67-2.11,0-.39.14-.53.71-.77a2.08,2.08,0,0,0,1.44-2.05,2.18,2.18,0,0,0-2.25-2.18c-1.52,0-2.5,1.2-2.5,3,0,3.41,2.6,5.56,6.83,5.56,5.32,0,9.37-3.55,9.37-8.27,0-2.75-1.69-4.3-4.16-5.08"/><line class="cls-1" x1="24.27" y1="96.79" x2="24.27" y2="51.36"/><line class="cls-1" x1="98.22" y1="96.79" x2="98.22" y2="36.95"/><path d="M97.25,54.44a.91.91,0,0,0,.62.86c3.34,1.08,10,5.28,15.08,13.91a21.22,21.22,0,0,1,3.66,12.2c0,5.6-1.48,11.35-3.5,17a2.32,2.32,0,0,0-.23,1.17.74.74,0,0,0,.77.78,1.43,1.43,0,0,0,1.25-.86c3.5-6.22,4.82-13.45,4.82-20.52a33.27,33.27,0,0,0-6.14-17.42c.23,0-7.15-9.56-9.25-12.82A43.36,43.36,0,0,1,100,39.51c-.08-.23-.77-3-.77-3a1,1,0,0,0-.94-.62,1,1,0,0,0-1,1V54.44"/><path d="M0,103.17c0,3.34,2.41,7.07,8.71,7.07,8.08,0,16.56-6.61,16.56-13.45,0-4.58-3.89-7.15-8.71-7.15C9,89.64,0,96,0,103.17"/><path d="M74,103.17c0,3.34,2.41,7.07,8.71,7.07,8.08,0,16.56-6.61,16.56-13.45,0-4.58-3.89-7.15-8.71-7.15C83,89.64,74,96,74,103.17"/><path d="M64.34,12a10.77,10.77,0,0,0,3.17-1.37,6.06,6.06,0,0,0,2.68-5c0-3.35-2.68-5.6-6.62-5.6s-7.08,2.4-7.08,5.28a2.2,2.2,0,0,0,2.22,2.43,1.93,1.93,0,0,0,2-2A2,2,0,0,0,60,4.12c-.35-.32-.49-.56-.49-.81,0-.84,1.76-1.73,3.42-1.73,2.36,0,3.77,1.31,3.77,3.49,0,3.14-2.22,6.09-4.58,6.09l-.81-.07c-1-.07-1-.07-1.24-.07-.77,0-1.19.36-1.19,1a.9.9,0,0,0,1,.92,6,6,0,0,0,.7-.08,7.42,7.42,0,0,1,1.34-.14c1.66,0,2.78,1.48,2.78,3.67,0,3.8-1.86,7.46-6.12,7.46-2,0-3.67-1-3.67-2.11,0-.39.14-.53.71-.77a2.08,2.08,0,0,0,1.44-2.05,2.18,2.18,0,0,0-2.25-2.18c-1.52,0-2.5,1.2-2.5,3,0,3.41,2.6,5.56,6.83,5.56,5.32,0,9.37-3.55,9.37-8.27,0-2.75-1.69-4.3-4.16-5.08"/><polyline class="cls-2" points="14.56 34.41 14.56 19.85 45.45 15.08"/><polyline class="cls-2" points="77.04 10.21 107.93 5.44 107.93 20"/></g></g></svg>