<svg xmlns="http://www.w3.org/2000/svg" viewBox="0 0 87.76 91.32"><defs><style>.cls-1,.cls-2{stroke:#000;}.cls-1{stroke-linecap:round;stroke-linejoin:round;stroke-width:0.97px;fill-rule:evenodd;}.cls-2{fill:none;stroke-linejoin:bevel;stroke-width:1.94px;}</style></defs><g id="Layer_2" data-name="Layer 2"><g id="Layer_1-2" data-name="Layer 1"><path class="cls-1" d="M13.86,78.21c11.73,11.38,46.9,11.38,58.62,0C60.76,95,25.59,95,13.86,78.21"/><line class="cls-2" x1="24.27" y1="60.93" x2="24.27" y2="1.09"/><line class="cls-2" x1="86.77" y1="60.93" x2="86.77" y2="15.49"/><path d="M23.3,18.58a.89.89,0,0,0,.62.85C27.26,20.52,34,24.72,39,33.35a21.22,21.22,0,0,1,3.66,12.2c0,5.6-1.48,11.35-3.5,17a2.28,2.28,0,0,0-.23,1.16.73.73,0,0,0,.77.78A1.42,1.42,0,0,0,41,63.59c3.5-6.22,4.82-13.45,4.82-20.52a33.27,33.27,0,0,0-6.14-17.42c.23,0-7.15-9.56-9.25-12.82A43.61,43.61,0,0,1,26,3.65c-.08-.23-.77-3-.77-3A1,1,0,0,0,24.31,0a1,1,0,0,0-1,1V18.58"/><path d="M0,67.3c0,3.35,2.41,7.08,8.71,7.08,8.08,0,16.56-6.61,16.56-13.45,0-4.59-3.89-7.15-8.71-7.15C9,53.78,0,60.15,0,67.3"/><path d="M62.5,67.3c0,3.35,2.41,7.08,8.71,7.08,8.08,0,16.55-6.61,16.55-13.45,0-4.59-3.89-7.15-8.71-7.15-7.54,0-16.55,6.37-16.55,13.52"/></g></g></svg>