<svg xmlns="http://www.w3.org/2000/svg" viewBox="0 0 182.53 73.44"><defs><style>.cls-1{fill:none;stroke:#000;stroke-linejoin:bevel;stroke-width:1.94px;}.cls-2{fill-rule:evenodd;}</style></defs><g id="Layer_2" data-name="Layer 2"><g id="Layer_1-2" data-name="Layer 1"><line class="cls-1" x1="24.27" y1="60" x2="24.27" y2="4.85"/><line class="cls-1" x1="76.69" y1="60" x2="76.69" y2="4.85"/><line class="cls-1" x1="129.12" y1="60" x2="129.12" y2="4.85"/><line class="cls-1" x1="181.54" y1="60" x2="181.54" y2="4.85"/><path d="M0,66.37c0,3.35,2.41,7.07,8.71,7.07,8.08,0,16.56-6.6,16.56-13.44,0-4.59-3.89-7.15-8.71-7.15C9,52.85,0,59.22,0,66.37"/><path d="M52.42,66.37c0,3.35,2.41,7.07,8.71,7.07,8.08,0,16.56-6.6,16.56-13.44,0-4.59-3.89-7.15-8.71-7.15-7.54,0-16.56,6.37-16.56,13.52"/><path d="M104.84,66.37c0,3.35,2.41,7.07,8.71,7.07,8.09,0,16.56-6.6,16.56-13.44,0-4.59-3.89-7.15-8.71-7.15-7.54,0-16.56,6.37-16.56,13.52"/><path d="M157.26,66.37c0,3.35,2.42,7.07,8.71,7.07,8.09,0,16.56-6.6,16.56-13.44,0-4.59-3.89-7.15-8.71-7.15-7.54,0-16.56,6.37-16.56,13.52"/><path class="cls-2" d="M23.3,0H182.51V9.71H23.3V0"/><path class="cls-2" d="M23.3,14.56H182.51v9.71H23.3V14.56"/></g></g></svg>