<svg xmlns="http://www.w3.org/2000/svg" viewBox="0 0 207.85 110.36"><defs><style>.cls-1{fill:none;stroke:#000;stroke-linejoin:bevel;stroke-width:1.94px;}.cls-2{fill-rule:evenodd;}</style></defs><g id="Layer_2" data-name="Layer 2"><g id="Layer_1-2" data-name="Layer 1"><path d="M109,11.31c-1.1.66-1.41,1.09-1.41,1.79a1.19,1.19,0,0,0,1.26,1.16c.92,0,1.45-.67,1.55-2A5.56,5.56,0,0,1,114,11c2.6,0,4,1.62,4,4.55,0,4.58-3,8.31-6.59,8.31-2.08,0-3.77-1-3.77-2.15a.37.37,0,0,1,.21-.39c1.13-.52,2-.91,2-2.39a2,2,0,0,0-2.12-2,2.8,2.8,0,0,0-2.71,3c0,3.1,2.68,5.35,6.45,5.35a10.24,10.24,0,0,0,10.32-10.18c0-3.55-2.71-6.05-6.55-6.05a9.12,9.12,0,0,0-4.44,1.16l2-6.66a22.84,22.84,0,0,0,4.61.57,7.71,7.71,0,0,0,5.57-2,3.19,3.19,0,0,0,1-1.76c0-.21-.11-.42-.25-.42a.8.8,0,0,0-.38.14,9.68,9.68,0,0,1-4,.88,29.87,29.87,0,0,1-7.22-1L109,11.31"/><line class="cls-1" x1="24.27" y1="96.92" x2="24.27" y2="41.77"/><line class="cls-1" x1="69.92" y1="96.92" x2="69.92" y2="41.77"/><line class="cls-1" x1="115.56" y1="96.92" x2="115.56" y2="41.77"/><line class="cls-1" x1="161.21" y1="96.92" x2="161.21" y2="41.77"/><line class="cls-1" x1="206.86" y1="96.92" x2="206.86" y2="41.77"/><path d="M0,103.29c0,3.34,2.41,7.07,8.71,7.07,8.08,0,16.56-6.6,16.56-13.45,0-4.58-3.89-7.15-8.71-7.15C9,89.76,0,96.14,0,103.29"/><path d="M45.64,103.29c0,3.34,2.42,7.07,8.71,7.07,8.09,0,16.56-6.6,16.56-13.45,0-4.58-3.89-7.15-8.71-7.15-7.54,0-16.56,6.38-16.56,13.53"/><path d="M91.29,103.29c0,3.34,2.41,7.07,8.71,7.07,8.08,0,16.56-6.6,16.56-13.45,0-4.58-3.89-7.15-8.71-7.15-7.54,0-16.56,6.38-16.56,13.53"/><path d="M136.94,103.29c0,3.34,2.41,7.07,8.7,7.07,8.09,0,16.56-6.6,16.56-13.45,0-4.58-3.89-7.15-8.71-7.15-7.54,0-16.55,6.38-16.55,13.53"/><path d="M182.58,103.29c0,3.34,2.41,7.07,8.71,7.07,8.08,0,16.56-6.6,16.56-13.45,0-4.58-3.89-7.15-8.71-7.15-7.54,0-16.56,6.38-16.56,13.53"/><path class="cls-2" d="M23.3,36.92H207.82v9.71H23.3V36.92"/><path class="cls-2" d="M23.3,51.48H207.82v9.71H23.3V51.48"/><path d="M109,11.31c-1.1.66-1.41,1.09-1.41,1.79a1.19,1.19,0,0,0,1.26,1.16c.92,0,1.45-.67,1.55-2A5.56,5.56,0,0,1,114,11c2.6,0,4,1.62,4,4.55,0,4.58-3,8.31-6.59,8.31-2.08,0-3.77-1-3.77-2.15a.37.37,0,0,1,.21-.39c1.13-.52,2-.91,2-2.39a2,2,0,0,0-2.12-2,2.8,2.8,0,0,0-2.71,3c0,3.1,2.68,5.35,6.45,5.35a10.24,10.24,0,0,0,10.32-10.18c0-3.55-2.71-6.05-6.55-6.05a9.12,9.12,0,0,0-4.44,1.16l2-6.66a22.84,22.84,0,0,0,4.61.57,7.71,7.71,0,0,0,5.57-2,3.19,3.19,0,0,0,1-1.76c0-.21-.11-.42-.25-.42a.8.8,0,0,0-.38.14,9.68,9.68,0,0,1-4,.88,29.87,29.87,0,0,1-7.22-1L109,11.31"/></g></g></svg>