<svg xmlns="http://www.w3.org/2000/svg" viewBox="0 0 32.88 94.99"><g id="Layer_2" data-name="Layer 2"><g id="Layer_1-2" data-name="Layer 1"><path d="M11.19,94.53l2.1.46c2-9.33,19.36-93.13,19.51-93.67,0-.15.08-.23.08-.31a.91.91,0,0,0-.77-.93C32,0,32,0,31.79,0c-.62,0-.77.23-1.08.78a26.54,26.54,0,0,1-5.14,7.15,8.65,8.65,0,0,1-3.34,1.86,5.23,5.23,0,0,0,1.09-3.18A5.62,5.62,0,0,0,17.72,1a5.51,5.51,0,0,0-5.51,5.6c0,4.35,4,5.83,7.22,5.83a11.85,11.85,0,0,0,10-5.83l.08-.08L27,18.66c-.47,1.24-2.57,6.14-5.45,8.7a8,8,0,0,1-3.34,1.95c.7-.94,1.09-.47,1.09-3.19a5.62,5.62,0,0,0-5.6-5.6A5.47,5.47,0,0,0,8.16,26c0,2.64,1.71,6,7.23,6a11.25,11.25,0,0,0,10-5.83L22.85,38.48c-1.71,4.12-4.19,9.09-8.7,10.57a4.8,4.8,0,0,0,1-3.26,5.46,5.46,0,0,0-5.6-5.52c-4.28,0-5.52,4-5.52,5.52s.7,5.9,7.23,5.9a11.76,11.76,0,0,0,10-5.83L18.89,57.53a23.4,23.4,0,0,1-5.52,9A10.19,10.19,0,0,1,10,68.41a5.41,5.41,0,0,0,1-3.19,5.52,5.52,0,0,0-11,0c0,2.1,1.32,5.83,7.15,5.83,7.23,0,9.87-5.21,10.11-5.83L11.19,94.53"/></g></g></svg>