<svg xmlns="http://www.w3.org/2000/svg" viewBox="0 0 35.74 56.91"><g id="Layer_2" data-name="Layer 2"><g id="Layer_1-2" data-name="Layer 1"><path d="M17.88,44.08a5.76,5.76,0,0,1-.47-.55l-8.94-11A.87.87,0,0,1,8.32,32a2,2,0,0,1,.15-.7l7.93-12a1.44,1.44,0,0,0,.16-.55v-.7a.91.91,0,0,0-.23-.62L3.73.47A1.07,1.07,0,0,0,3,0a1.08,1.08,0,0,0-.62.23A1,1,0,0,0,1.94,1a1.83,1.83,0,0,0,.24.86L8.08,10a1.62,1.62,0,0,1,.24.93,1.83,1.83,0,0,1-.24.94l-7.85,12a1.76,1.76,0,0,0-.15.62v.7a.85.85,0,0,0,.23.62L9,36.54a7.78,7.78,0,0,0-1.94-.24A7.14,7.14,0,0,0,0,43.53a5,5,0,0,0,.86,3c1.63,2.49,7.46,9.88,7.46,9.88a1.36,1.36,0,0,0,.93.47.57.57,0,0,0,.47-.16,1.19,1.19,0,0,0,.54-.93,1.4,1.4,0,0,0-.23-.7c-.24-.39-2.72-4.9-2.72-4.9a6.1,6.1,0,0,1-.55-2.49,4.39,4.39,0,0,1,4.36-4.51,4.66,4.66,0,0,1,2.48.7l3,1.95a1.73,1.73,0,0,0,.63.15.88.88,0,0,0,.78-.39,1.5,1.5,0,0,0,.23-.7,1.08,1.08,0,0,0-.23-.62l-.16-.23"/><path d="M28,21.46a3.89,3.89,0,1,0,3.89-3.88A3.85,3.85,0,0,0,28,21.46"/></g></g></svg>