<svg xmlns="http://www.w3.org/2000/svg" viewBox="0 0 30.4 75.17"><g id="Layer_2" data-name="Layer 2"><g id="Layer_1-2" data-name="Layer 1"><path d="M11.74,32A11.54,11.54,0,0,0,22,26.51L19.12,38.25c-1.71,4-4.66,9.25-9.17,10.49A5.69,5.69,0,0,0,11,45c0-3.11-2.49-5.13-5.52-5.13A5.43,5.43,0,0,0,0,45.32c0,4,3.42,6,7.54,6s7.38-2.26,9.72-5.52L10.18,74.7l2.1.47,18-73.85A.45.45,0,0,0,30.4,1a1,1,0,0,0-.78-.93A.47.47,0,0,0,29.31,0a1.19,1.19,0,0,0-1,.7C26.82,4,23.24,8.55,19.51,9.48a5.49,5.49,0,0,0,1.17-3.73A5.27,5.27,0,0,0,15.24.54a5.53,5.53,0,0,0-5.6,5.6c0,4.12,3.65,5.67,7.15,5.91a4.65,4.65,0,0,0,1-.08,12.17,12.17,0,0,0,9.1-5.44l-3,12.52c-1.55,3.88-4.89,9.32-9.24,10.41a5.5,5.5,0,0,0,1.16-3.73,5.31,5.31,0,0,0-5.6-5.21A5.43,5.43,0,0,0,4.74,26c0,3.65,3.5,5.91,7,5.91"/></g></g></svg>