<svg xmlns="http://www.w3.org/2000/svg" viewBox="0 0 26.66 55.27"><g id="Layer_2" data-name="Layer 2"><g id="Layer_1-2" data-name="Layer 1"><path d="M26.59,1.4A.79.79,0,0,0,26.66,1,1,1,0,0,0,26,.08.85.85,0,0,0,25.58,0a1.13,1.13,0,0,0-1,.62c-1.86,3.73-5,7.93-9.25,9A5.47,5.47,0,0,0,16.63,5.9,5.61,5.61,0,0,0,10.88.54,5.67,5.67,0,0,0,5.52,6.29c.16,4.36,4.36,5.83,8,5.83A12,12,0,0,0,22.78,7l-3.5,12.36c-1.09,3.66-5.52,8.71-9.49,9.72a6.06,6.06,0,0,0,1.33-3.73A5.5,5.5,0,0,0,5.44,20,5.57,5.57,0,0,0,0,25.73a5.37,5.37,0,0,0,3.65,5A10.43,10.43,0,0,0,8,31.48a12,12,0,0,0,9.25-5.13L9.33,54.73l2.1.54L26.59,1.4"/></g></g></svg>